# Blender 4.1.0
# www.blender.org
mtllib escaleras.mtl
o Cube.011
v 37.915260 3.765008 1.643795
v 37.928791 4.053763 1.642473
v 37.916260 3.756626 -0.176662
v 37.929790 4.045381 -0.177985
v 39.607662 3.738056 1.644236
v 39.621193 4.026812 1.642913
v 39.608662 3.729674 -0.176222
v 39.622192 4.018428 -0.177545
v 46.001488 -0.121703 1.653261
v 46.001488 0.167371 1.653261
v 46.001488 -0.121703 -0.167217
v 46.001488 0.167371 -0.167217
v 46.577339 -0.121703 1.653261
v 46.577339 0.167372 1.653261
v 46.577339 -0.121703 -0.167217
v 46.577339 0.167371 -0.167217
v 45.469707 0.167871 1.663895
v 45.483234 0.456625 1.662572
v 45.470703 0.159488 -0.156564
v 45.484234 0.448242 -0.157886
v 46.044926 0.140919 1.664335
v 46.058456 0.429673 1.663013
v 46.045925 0.132536 -0.156123
v 46.059456 0.421290 -0.157445
v 44.932926 0.473402 1.662194
v 44.946453 0.762157 1.660872
v 44.933922 0.465019 -0.158265
v 44.947453 0.753774 -0.159587
v 45.508148 0.446450 1.662633
v 45.521675 0.735205 1.661311
v 45.509144 0.438068 -0.157825
v 45.522675 0.726822 -0.159147
v 43.331772 1.379900 1.657140
v 43.345303 1.668654 1.655818
v 43.332771 1.371517 -0.163318
v 43.346302 1.660272 -0.164641
v 43.906990 1.352947 1.657580
v 43.920525 1.641702 1.656258
v 43.907993 1.344565 -0.162878
v 43.921524 1.633319 -0.164201
v 43.869011 1.084014 1.658797
v 43.882538 1.372769 1.657475
v 43.870010 1.075632 -0.161661
v 43.883541 1.364386 -0.162983
v 44.444229 1.057063 1.659237
v 44.457760 1.345817 1.657915
v 44.445229 1.048680 -0.161221
v 44.458759 1.337434 -0.162543
v 44.410614 0.778257 1.660503
v 44.424145 1.067012 1.659181
v 44.411613 0.769874 -0.159956
v 44.425144 1.058629 -0.161278
v 44.985836 0.751305 1.660943
v 44.999367 1.040060 1.659620
v 44.986835 0.742922 -0.159516
v 45.000366 1.031677 -0.160838
v 41.718685 2.293705 1.652046
v 41.732216 2.582460 1.650724
v 41.719688 2.285323 -0.168412
v 41.733219 2.574077 -0.169734
v 42.293907 2.266753 1.652486
v 42.307438 2.555508 1.651164
v 42.294907 2.258371 -0.167972
v 42.308437 2.547125 -0.169294
v 41.177078 2.599464 1.650341
v 41.190609 2.888218 1.649019
v 41.178078 2.591081 -0.170118
v 41.191608 2.879836 -0.171440
v 41.752300 2.572512 1.650781
v 41.765831 2.861267 1.649458
v 41.753300 2.564129 -0.169678
v 41.766830 2.852884 -0.171000
v 40.639843 2.895349 1.648683
v 40.653374 3.184104 1.647360
v 40.640846 2.886966 -0.171775
v 40.654377 3.175721 -0.173097
v 41.215065 2.868397 1.649123
v 41.228596 3.157151 1.647801
v 41.216064 2.860014 -0.171335
v 41.229591 3.148769 -0.172657
v 42.240997 1.988852 1.653737
v 42.254532 2.277606 1.652414
v 42.242001 1.980469 -0.166722
v 42.255531 2.269224 -0.168044
v 42.816219 1.961900 1.654177
v 42.829750 2.250654 1.652854
v 42.817219 1.953517 -0.166282
v 42.830750 2.242271 -0.167604
v 42.777779 1.683320 1.655438
v 42.791309 1.972074 1.654116
v 42.778782 1.674937 -0.165020
v 42.792313 1.963691 -0.166342
v 43.353001 1.656368 1.655878
v 43.366531 1.945122 1.654556
v 43.354000 1.647985 -0.164580
v 43.367531 1.936739 -0.165903
v 39.569679 3.469123 1.645453
v 39.583210 3.757878 1.644131
v 39.570679 3.460740 -0.175004
v 39.584209 3.749495 -0.176327
v 40.144897 3.442171 1.645894
v 40.158428 3.730926 1.644571
v 40.145901 3.433788 -0.174565
v 40.159428 3.722543 -0.175887
v 40.111282 3.163365 1.647159
v 40.124813 3.452119 1.645836
v 40.112282 3.154982 -0.173300
v 40.125813 3.443737 -0.174622
v 40.686504 3.136413 1.647599
v 40.700035 3.425167 1.646276
v 40.687504 3.128030 -0.172860
v 40.701035 3.416785 -0.174182
vn -0.9989 0.0468 -0.0008
vn 0.0002 -0.0046 -1.0000
vn 0.9989 -0.0468 0.0008
vn -0.0002 0.0046 1.0000
vn -0.0159 -0.9999 0.0046
vn 0.0159 0.9999 -0.0046
vn -1.0000 -0.0000 -0.0000
vn -0.0000 -0.0000 -1.0000
vn 1.0000 -0.0000 -0.0000
vn -0.0000 -0.0000 1.0000
vn -0.0000 -1.0000 -0.0000
vn -0.0000 1.0000 -0.0000
vn 0.0005 -0.0046 -1.0000
vn -0.0005 0.0046 1.0000
vn -0.0468 -0.9989 0.0046
vn 0.0468 0.9989 -0.0046
vt 0.375000 0.000000
vt 0.625000 0.000000
vt 0.625000 0.250000
vt 0.375000 0.250000
vt 0.625000 0.500000
vt 0.375000 0.500000
vt 0.625000 0.750000
vt 0.375000 0.750000
vt 0.625000 1.000000
vt 0.375000 1.000000
vt 0.125000 0.500000
vt 0.125000 0.750000
vt 0.875000 0.500000
vt 0.875000 0.750000
s 0
f 1/1/1 2/2/1 4/3/1 3/4/1
f 3/4/2 4/3/2 8/5/2 7/6/2
f 7/6/3 8/5/3 6/7/3 5/8/3
f 5/8/4 6/7/4 2/9/4 1/10/4
f 3/11/5 7/6/5 5/8/5 1/12/5
f 8/5/6 4/13/6 2/14/6 6/7/6
f 9/1/7 10/2/7 12/3/7 11/4/7
f 11/4/8 12/3/8 16/5/8 15/6/8
f 15/6/9 16/5/9 14/7/9 13/8/9
f 13/8/10 14/7/10 10/9/10 9/10/10
f 11/11/11 15/6/11 13/8/11 9/12/11
f 16/5/12 12/13/12 10/14/12 14/7/12
f 17/1/1 18/2/1 20/3/1 19/4/1
f 19/4/13 20/3/13 24/5/13 23/6/13
f 23/6/3 24/5/3 22/7/3 21/8/3
f 21/8/14 22/7/14 18/9/14 17/10/14
f 19/11/15 23/6/15 21/8/15 17/12/15
f 24/5/16 20/13/16 18/14/16 22/7/16
f 25/1/1 26/2/1 28/3/1 27/4/1
f 27/4/13 28/3/13 32/5/13 31/6/13
f 31/6/3 32/5/3 30/7/3 29/8/3
f 29/8/14 30/7/14 26/9/14 25/10/14
f 27/11/15 31/6/15 29/8/15 25/12/15
f 32/5/16 28/13/16 26/14/16 30/7/16
f 33/1/1 34/2/1 36/3/1 35/4/1
f 35/4/13 36/3/13 40/5/13 39/6/13
f 39/6/3 40/5/3 38/7/3 37/8/3
f 37/8/14 38/7/14 34/9/14 33/10/14
f 35/11/15 39/6/15 37/8/15 33/12/15
f 40/5/16 36/13/16 34/14/16 38/7/16
f 41/1/1 42/2/1 44/3/1 43/4/1
f 43/4/13 44/3/13 48/5/13 47/6/13
f 47/6/3 48/5/3 46/7/3 45/8/3
f 45/8/14 46/7/14 42/9/14 41/10/14
f 43/11/15 47/6/15 45/8/15 41/12/15
f 48/5/16 44/13/16 42/14/16 46/7/16
f 49/1/1 50/2/1 52/3/1 51/4/1
f 51/4/13 52/3/13 56/5/13 55/6/13
f 55/6/3 56/5/3 54/7/3 53/8/3
f 53/8/14 54/7/14 50/9/14 49/10/14
f 51/11/15 55/6/15 53/8/15 49/12/15
f 56/5/16 52/13/16 50/14/16 54/7/16
f 57/1/1 58/2/1 60/3/1 59/4/1
f 59/4/13 60/3/13 64/5/13 63/6/13
f 63/6/3 64/5/3 62/7/3 61/8/3
f 61/8/14 62/7/14 58/9/14 57/10/14
f 59/11/15 63/6/15 61/8/15 57/12/15
f 64/5/16 60/13/16 58/14/16 62/7/16
f 65/1/1 66/2/1 68/3/1 67/4/1
f 67/4/13 68/3/13 72/5/13 71/6/13
f 71/6/3 72/5/3 70/7/3 69/8/3
f 69/8/14 70/7/14 66/9/14 65/10/14
f 67/11/15 71/6/15 69/8/15 65/12/15
f 72/5/16 68/13/16 66/14/16 70/7/16
f 73/1/1 74/2/1 76/3/1 75/4/1
f 75/4/13 76/3/13 80/5/13 79/6/13
f 79/6/3 80/5/3 78/7/3 77/8/3
f 77/8/14 78/7/14 74/9/14 73/10/14
f 75/11/15 79/6/15 77/8/15 73/12/15
f 80/5/16 76/13/16 74/14/16 78/7/16
f 81/1/1 82/2/1 84/3/1 83/4/1
f 83/4/13 84/3/13 88/5/13 87/6/13
f 87/6/3 88/5/3 86/7/3 85/8/3
f 85/8/14 86/7/14 82/9/14 81/10/14
f 83/11/15 87/6/15 85/8/15 81/12/15
f 88/5/16 84/13/16 82/14/16 86/7/16
f 89/1/1 90/2/1 92/3/1 91/4/1
f 91/4/13 92/3/13 96/5/13 95/6/13
f 95/6/3 96/5/3 94/7/3 93/8/3
f 93/8/14 94/7/14 90/9/14 89/10/14
f 91/11/15 95/6/15 93/8/15 89/12/15
f 96/5/16 92/13/16 90/14/16 94/7/16
f 97/1/1 98/2/1 100/3/1 99/4/1
f 99/4/13 100/3/13 104/5/13 103/6/13
f 103/6/3 104/5/3 102/7/3 101/8/3
f 101/8/14 102/7/14 98/9/14 97/10/14
f 99/11/15 103/6/15 101/8/15 97/12/15
f 104/5/16 100/13/16 98/14/16 102/7/16
f 105/1/1 106/2/1 108/3/1 107/4/1
f 107/4/13 108/3/13 112/5/13 111/6/13
f 111/6/3 112/5/3 110/7/3 109/8/3
f 109/8/14 110/7/14 106/9/14 105/10/14
f 107/11/15 111/6/15 109/8/15 105/12/15
f 112/5/16 108/13/16 106/14/16 110/7/16
